<svg width="27" height="29" viewBox="0 0 27 29" fill="none" xmlns="http://www.w3.org/2000/svg">
<ellipse cx="13.5" cy="16.5" rx="13.5" ry="12.5" fill="white"/>
<path d="M17.9141 22.1094C17.4609 22.1094 17.0234 22.0312 16.6016 21.875C16.1797 21.7031 15.8125 21.4531 15.5 21.125C15.1875 20.7812 14.9375 20.3672 14.75 19.8828C14.5625 19.3828 14.4688 18.8047 14.4688 18.1484C14.4688 15.6953 16.0156 12.8672 19.1094 9.66406L21.1719 11.6562C20.8438 11.9687 20.5156 12.3047 20.1875 12.6641C19.875 13.0234 19.5859 13.3906 19.3203 13.7656C19.0703 14.125 18.8516 14.4922 18.6641 14.8672C18.4766 15.2266 18.3359 15.5625 18.2422 15.875C19.1328 15.9531 19.8438 16.2891 20.375 16.8828C20.9062 17.4766 21.1719 18.1719 21.1719 18.9688C21.1719 19.3906 21.0938 19.7891 20.9375 20.1641C20.7812 20.5391 20.5625 20.875 20.2812 21.1719C20 21.4531 19.6562 21.6797 19.25 21.8516C18.8438 22.0234 18.3984 22.1094 17.9141 22.1094ZM9.10156 22.1094C8.64844 22.1094 8.21094 22.0312 7.78906 21.875C7.36719 21.7031 7 21.4531 6.6875 21.125C6.375 20.7812 6.125 20.3672 5.9375 19.8828C5.75 19.3828 5.65625 18.8047 5.65625 18.1484C5.65625 15.6953 7.20312 12.8672 10.2969 9.66406L12.3594 11.6562C12.0312 11.9687 11.7031 12.3047 11.375 12.6641C11.0625 13.0234 10.7734 13.3906 10.5078 13.7656C10.2578 14.125 10.0391 14.4922 9.85156 14.8672C9.66406 15.2266 9.52344 15.5625 9.42969 15.875C10.3203 15.9531 11.0312 16.2891 11.5625 16.8828C12.0938 17.4766 12.3594 18.1719 12.3594 18.9688C12.3594 19.3906 12.2812 19.7891 12.125 20.1641C11.9688 20.5391 11.75 20.875 11.4688 21.1719C11.1875 21.4531 10.8438 21.6797 10.4375 21.8516C10.0312 22.0234 9.58594 22.1094 9.10156 22.1094Z" fill="#FFB904"/>
</svg>
